<?xml version="1.0" encoding="UTF-8" standalone="no"?>
<!-- Created with Inkscape (http://www.inkscape.org/) -->

<svg
   xmlns:dc="http://purl.org/dc/elements/1.1/"
   xmlns:cc="http://creativecommons.org/ns#"
   xmlns:rdf="http://www.w3.org/1999/02/22-rdf-syntax-ns#"
   xmlns:svg="http://www.w3.org/2000/svg"
   xmlns="http://www.w3.org/2000/svg"
   xmlns:sodipodi="http://sodipodi.sourceforge.net/DTD/sodipodi-0.dtd"
   xmlns:inkscape="http://www.inkscape.org/namespaces/inkscape"
   width="205.7274mm"
   height="16.890158mm"
   viewBox="0 0 728.95536 59.847015"
   id="svg2"
   version="1.1"
   inkscape:version="0.91 r13725"
   sodipodi:docname="clouds.svg">
  <defs
     id="defs4" />
  <sodipodi:namedview
     id="base"
     pagecolor="#ffffff"
     bordercolor="#666666"
     borderopacity="1.0"
     inkscape:pageopacity="0.0"
     inkscape:pageshadow="2"
     inkscape:zoom="0.35"
     inkscape:cx="368.28587"
     inkscape:cy="-345.86724"
     inkscape:document-units="px"
     inkscape:current-layer="layer1"
     showgrid="false"
     fit-margin-top="0"
     fit-margin-left="0"
     fit-margin-right="0"
     fit-margin-bottom="0"
     inkscape:window-width="1920"
     inkscape:window-height="1017"
     inkscape:window-x="-8"
     inkscape:window-y="-8"
     inkscape:window-maximized="1" />
  <metadata
     id="metadata7">
    <rdf:RDF>
      <cc:Work
         rdf:about="">
        <dc:format>image/svg+xml</dc:format>
        <dc:type
           rdf:resource="http://purl.org/dc/dcmitype/StillImage" />
        <dc:title></dc:title>
      </cc:Work>
    </rdf:RDF>
  </metadata>
  <g
     inkscape:label="Layer 1"
     inkscape:groupmode="layer"
     id="layer1"
     transform="translate(-6.7141343,-126.64795)">
    <path
       style="fill:#ffffff"
       d="m 52.502554,185.09654 c -15.78518,-3.82714 -31.99444,-16.85041 -39.14211,-31.44859 -3.5184497,-7.18598 -6.5921597,-18.43028 -6.6289097,-24.25 l -0.0174,-2.75 100.4999957,0 c 87.15124,0 100.5,0.1927 100.5,1.45078 0,8.07025 -5.96258,22.06682 -12.49636,29.33395 -9.57919,10.65436 -20.79083,15.49363 -36.00364,15.54022 -10.89225,0.0334 -18.27993,-1.92824 -25.6629,-6.81405 -4.43537,-2.93519 -4.8371,-3.01729 -4.8371,-0.98856 0,2.49564 -7.88993,10.28623 -11.68628,11.53914 -1.93911,0.63996 -6.29048,0.95261 -9.66969,0.69477 -5.48047,-0.41816 -6.87265,-0.10515 -12.890456,2.89825 -3.71054,1.85188 -9.56054,4.03055 -13,4.84149 -7.72027,1.82026 -21.35396,1.79795 -28.96519,-0.0474 z m 425.844436,-9.00111 c -16.42414,-3.26367 -32.39983,-10.33247 -45.63282,-20.19126 -8.59469,-6.40318 -27,-25.95389 -27,-28.68026 0,-0.31678 74.23995,-0.57596 164.97766,-0.57596 l 164.97768,0 -4.2277,3.83181 c -9.3487,8.47337 -24.15063,16.34397 -37.22764,19.79497 -10.8161,2.85435 -35.30748,2.64737 -45.7885,-0.38696 -9.98505,-2.89074 -19.42118,-7.18337 -26.67522,-12.13493 l -5.74442,-3.92111 -2.26427,5.46295 c -6.59013,15.89987 -25.61898,25.06086 -43.44239,20.91432 -6.89308,-1.60365 -6.92621,-1.60115 -10.54982,0.79684 -9.91456,6.56115 -23.26767,11.83643 -37.09239,14.65373 -11.60212,2.36436 -33.52017,2.57996 -44.31017,0.43586 z"
       id="path3347"
       inkscape:connector-curvature="0" />
  </g>
</svg>
